# File created by Blade
# Date/Time:  Wed Sep 24 19:53:44 2014
# Frame Rate: 120.000 fps
#------------------------------------------------------
:FULLY-SPECIFIED
:DEGREES
3061
root -5.971500 32.882326 -4.560659 9.011899 14.149558 -0.545261
Spine -12.596070 19.196431 0.296766
Head -8.559364 -11.921001 10.679202
LeftShoulder -20.986080 23.015217 21.473831
LeftArm 10.108933 -78.520258 -41.101027
LeftForeArm -25.454067 -0.000000 120.942994
LeftHand -18.450482 -0.000000 11.411758
LeftHandThumb1 -26.253704 0.000000 33.147579
RightShoulder -22.267705 10.515681 -18.426044
RightArm -14.739139 -7.417278 77.013520
RightForeArm -23.391460 -0.000000 21.329774
RightHand -8.394080 -0.000000 8.670819
RightHandThumb1 -24.326973 -0.000000 -32.862282
LeftUpLeg -5.455419 -1.371329 5.284863
LeftLeg -1.837697 -0.000000 0.000000
LeftFoot -7.629364 2.259697 -18.192872
LeftToeBase 11.701224 -0.000000 -0.000000
RightUpLeg -3.092011 -15.851182 -2.302982
RightLeg 1.606170 -0.000000 -0.000000
RightFoot -6.884565 -7.359568 -11.667771
RightToeBase -0.496293 -0.000000 0.000000
3062
root -5.969494 32.881992 -4.557842 8.997229 14.141675 -0.553594
Spine -12.592877 19.217246 0.311565
Head -8.535452 -11.922963 10.674163
LeftShoulder -20.971330 23.009144 21.488053
LeftArm 10.152138 -78.509342 -41.105816
LeftForeArm -25.409183 -0.000000 120.961131
LeftHand -18.508186 0.000000 11.375710
LeftHandThumb1 -26.253704 0.000000 33.147579
RightShoulder -22.268891 10.524618 -18.437760
RightArm -14.760822 -7.394457 76.998408
RightForeArm -23.397401 -0.000000 21.339380
RightHand -8.391084 0.000000 8.731939
RightHandThumb1 -24.326973 -0.000000 -32.862282
LeftUpLeg -5.430993 -1.345985 5.287263
LeftLeg -1.855952 -0.000000 0.000000
LeftFoot -7.671042 2.263290 -18.326623
LeftToeBase 11.916027 -0.000000 -0.000000
RightUpLeg -3.075621 -15.861597 -2.302626
RightLeg 1.608415 -0.000000 -0.000000
RightFoot -6.885425 -7.338441 -11.689628
RightToeBase -0.546593 -0.000000 0.000000
3063
root -5.968737 32.882944 -4.559062 8.997667 14.167477 -0.557019
Spine -12.594788 19.190124 0.323863
Head -8.523122 -11.901509 10.692427
LeftShoulder -20.968570 23.005971 21.501589
LeftArm 10.196365 -78.496029 -41.129615
LeftForeArm -25.415057 -0.000000 120.984743
LeftHand -18.585466 -0.000000 11.464055
LeftHandThumb1 -26.253704 0.000000 33.147579
RightShoulder -22.245621 10.522881 -18.415883
RightArm -14.752519 -7.296095 76.932878
RightForeArm -23.727886 0.000000 21.362551
RightHand -8.309999 0.000000 9.001011
RightHandThumb1 -24.326973 -0.000000 -32.862282
LeftUpLeg -5.446643 -1.384340 5.293445
LeftLeg -1.829686 -0.000000 0.000000
LeftFoot -7.639912 2.260777 -18.191655
LeftToeBase 11.696161 -0.000000 -0.000000
RightUpLeg -3.109530 -15.969917 -2.292352
RightLeg 1.675119 -0.000000 -0.000000
RightFoot -6.914159 -7.266996 -11.674179
RightToeBase -0.544957 -0.000000 0.000000
3064
root -5.967218 32.882715 -4.559506 9.004603 14.174334 -0.548958
Spine -12.604710 19.183500 0.315185
Head -8.510361 -11.874573 10.711290
LeftShoulder -20.958582 22.991352 21.526068
LeftArm 10.201797 -78.467552 -41.105057
LeftForeArm -25.384591 0.000000 120.961651
LeftHand -18.540972 -0.000000 11.485114
LeftHandThumb1 -26.253704 0.000000 33.147579
RightShoulder -22.233906 10.525204 -18.410256
RightArm -14.756914 -7.273613 76.917575
RightForeArm -23.733692 -0.000000 21.370113
RightHand -8.313689 -0.000000 9.014141
RightHandThumb1 -24.326973 -0.000000 -32.862282
LeftUpLeg -5.453711 -1.378178 5.284114
LeftLeg -1.840036 -0.000000 0.000000
LeftFoot -7.660246 2.251565 -18.342883
LeftToeBase 11.881788 -0.000000 -0.000000
RightUpLeg -3.083224 -15.901564 -2.306022
RightLeg 1.617673 -0.000000 -0.000000
RightFoot -6.882931 -7.325278 -11.658422
RightToeBase -0.545078 -0.000000 0.000000
3065
root -5.966346 32.883382 -4.558582 9.002518 14.182324 -0.547577
Spine -12.608438 19.179689 0.314009
Head -8.493791 -11.852761 10.729780
LeftShoulder -20.945823 22.995713 21.534271
LeftArm 10.253116 -78.465036 -41.118453
LeftForeArm -25.405711 0.000000 120.935998
LeftHand -18.493901 0.000000 11.498756
LeftHandThumb1 -26.253704 0.000000 33.147579
RightShoulder -22.231769 10.524267 -18.398043
RightArm -14.752446 -7.281757 76.902341
RightForeArm -23.715364 -0.000000 21.372588
RightHand -8.337719 -0.000000 9.006550
RightHandThumb1 -24.326973 -0.000000 -32.862282
LeftUpLeg -5.471948 -1.311983 5.265590
LeftLeg -1.786164 -0.000000 0.000000
LeftFoot -7.634009 2.217996 -18.111649
LeftToeBase 11.669194 -0.000000 -0.000000
RightUpLeg -3.069145 -15.901005 -2.308052
RightLeg 1.599199 -0.000000 -0.000000
RightFoot -6.873778 -7.338773 -11.658620
RightToeBase -0.484526 -0.000000 0.000000
3066
root -5.964256 32.883673 -4.558595 9.000712 14.185255 -0.552163
Spine -12.610297 19.179050 0.334085
Head -8.475134 -11.836595 10.717978
LeftShoulder -20.946971 22.979015 21.541691
LeftArm 10.335781 -78.420665 -41.166539
LeftForeArm -25.432618 -0.000000 120.891768
LeftHand -18.571232 -0.000000 11.469285
LeftHandThumb1 -26.253704 0.000000 33.147579
RightShoulder -22.220713 10.529718 -18.408421
RightArm -14.747411 -7.320210 76.920032
RightForeArm -23.474924 -0.000000 21.348523
RightHand -8.427789 -0.000000 8.794467
RightHandThumb1 -24.326973 -0.000000 -32.862282
LeftUpLeg -5.454195 -1.385217 5.281070
LeftLeg -1.820600 -0.000000 0.000000
LeftFoot -7.637720 2.251931 -18.166771
LeftToeBase 11.711183 -0.000000 -0.000000
RightUpLeg -3.084095 -15.932009 -2.304625
RightLeg 1.631321 -0.000000 -0.000000
RightFoot -6.886946 -7.315779 -11.666580
RightToeBase -0.476351 -0.000000 0.000000
3067
root -5.962866 32.884517 -4.558475 9.001405 14.195386 -0.544866
Spine -12.611567 19.170296 0.331404
Head -8.462101 -11.795422 10.738933
LeftShoulder -20.934969 22.978886 21.543573
LeftArm 10.434193 -78.432377 -41.232433
LeftForeArm -25.519441 -0.000000 120.831961
LeftHand -18.509106 -0.000000 11.421058
LeftHandThumb1 -26.253704 0.000000 33.147579
RightShoulder -22.212786 10.539375 -18.402258
RightArm -14.753221 -7.261930 76.880693
RightForeArm -23.710020 -0.000000 21.361464
RightHand -8.365701 -0.000000 8.998967
RightHandThumb1 -24.326973 -0.000000 -32.862282
LeftUpLeg -5.470694 -1.300955 5.259436
LeftLeg -1.797958 -0.000000 0.000000
LeftFoot -7.640305 2.200179 -18.231994
LeftToeBase 11.843958 -0.000000 -0.000000
RightUpLeg -3.083992 -15.942616 -2.312376
RightLeg 1.636783 -0.000000 -0.000000
RightFoot -6.878300 -7.320583 -11.656057
RightToeBase -0.552700 -0.000000 0.000000
3068
root -5.962711 32.884598 -4.558752 9.001423 14.200205 -0.545107
Spine -12.609040 19.163342 0.333793
Head -8.464260 -11.763829 10.765016
LeftShoulder -20.923165 22.963405 21.562635
LeftArm 10.435921 -78.423173 -41.217423
LeftForeArm -25.585589 -0.000000 120.776999
LeftHand -18.525223 -0.000000 11.419822
LeftHandThumb1 -26.253704 0.000000 33.147579
RightShoulder -22.203879 10.548124 -18.398232
RightArm -14.755293 -7.272498 76.874046
RightForeArm -23.719217 -0.000000 21.370843
RightHand -8.356799 -0.000000 9.006401
RightHandThumb1 -24.326973 -0.000000 -32.862282
LeftUpLeg -5.475795 -1.277663 5.256122
LeftLeg -1.791259 -0.000000 0.000000
LeftFoot -7.636427 2.172061 -18.251660
LeftToeBase 11.849230 -0.000000 -0.000000
RightUpLeg -3.089029 -15.957406 -2.312262
RightLeg 1.648246 -0.000000 -0.000000
RightFoot -6.878788 -7.306499 -11.675952
RightToeBase -0.557523 -0.000000 0.000000
3069
root -5.961093 32.883623 -4.559201 9.003916 14.211488 -0.538159
Spine -12.610228 19.155484 0.334065
Head -8.459096 -11.739792 10.776829
LeftShoulder -20.917680 22.974976 21.577913
LeftArm 10.640527 -78.422027 -41.413186
LeftForeArm -25.640960 -0.000000 120.704250
LeftHand -18.525453 -0.000000 11.432166
LeftHandThumb1 -26.253704 0.000000 33.147579
RightShoulder -22.196705 10.555916 -18.415033
RightArm -14.758682 -7.260980 76.878345
RightForeArm -23.736893 -0.000000 21.361373
RightHand -8.359816 -0.000000 9.046477
RightHandThumb1 -24.326973 -0.000000 -32.862282
LeftUpLeg -5.469398 -1.321342 5.253692
LeftLeg -1.811085 -0.000000 0.000000
LeftFoot -7.637494 2.197041 -18.275892
LeftToeBase 11.843086 -0.000000 -0.000000
RightUpLeg -3.083156 -15.949091 -2.323323
RightLeg 1.638782 -0.000000 -0.000000
RightFoot -6.888026 -7.322865 -11.675604
RightToeBase -0.508443 -0.000000 0.000000
3070
root -5.959664 32.884029 -4.559178 9.007515 14.220730 -0.527341
Spine -12.610999 19.139207 0.331603
Head -8.448568 -11.705676 10.777757
LeftShoulder -20.906082 22.963844 21.582579
LeftArm 10.658840 -78.417183 -41.413744
LeftForeArm -25.681061 -0.000000 120.631542
LeftHand -18.460773 -0.000000 11.436308
LeftHandThumb1 -26.253704 0.000000 33.147579
RightShoulder -22.187199 10.565492 -18.416685
RightArm -14.760569 -7.272560 76.878264
RightForeArm -23.744767 -0.000000 21.368167
RightHand -8.373878 0.000000 9.055567
RightHandThumb1 -24.326973 -0.000000 -32.862282
LeftUpLeg -5.475184 -1.304807 5.239029
LeftLeg -1.804621 -0.000000 0.000000
LeftFoot -7.626415 2.166556 -18.261219
LeftToeBase 11.874615 -0.000000 -0.000000
RightUpLeg -3.078023 -15.946575 -2.335749
RightLeg 1.631037 -0.000000 -0.000000
RightFoot -6.877619 -7.325576 -11.667440
RightToeBase -0.523032 -0.000000 0.000000
